<mxfile host="app.diagrams.net" modified="2023-09-17T08:03:20.254Z" agent="Mozilla/5.0 (Windows NT 10.0; Win64; x64) AppleWebKit/537.36 (KHTML, like Gecko) Chrome/116.0.0.0 Safari/537.36" version="21.7.5" etag="hnbi_44wA2a3Vmlg1vt1" type="github">
  <diagram name="Page-1" id="TSfbip1j_aU6h6PB45Z7">
    <mxGraphModel>
      <root>
        <mxCell id="0" />
        <mxCell id="1" parent="0" />
      </root>
    </mxGraphModel>
  </diagram>
</mxfile>
